<svg width="624.4563476562499px" height="407.59999999999997px" xmlns="http://www.w3.org/2000/svg" viewBox="-62.228173828124966 -128.79999999999998 624.4563476562499 407.59999999999997" style="background: rgba(0, 0, 0, 0);" preserveAspectRatio="xMidYMid"><defs><filter id="editing-metal-beveled"><feGaussianBlur stdDeviation="4" in="SourceAlpha" result="blur"></feGaussianBlur><feSpecularLighting surfaceScale="5" specularConstant="0.8" specularExponent="7.5" lighting-color="#000000" in="blur" result="specular"><fePointLight x="-250" y="-50" z="300"></fePointLight></feSpecularLighting><feComposite operator="in" in="specular" in2="SourceAlpha" result="comp"></feComposite><feComposite in="SourceGraphic" in2="comp" operator="arithmetic" k1="0" k2="1" k3="1" k4="0"></feComposite></filter></defs><g filter="url(#editing-metal-beveled)"><g transform="translate(37.51718711853027, 152.9000015258789)"><path d="M73.80-99.20L73.80-99.20L73.80-99.20Q74.40-99.20 74.80-97L74.80-97L74.80-97Q74.80-87.60 58.40-62.40L58.40-62.40L58.40-62.40Q42-37.20 22-15.40L22-15.40L22-15.40Q2 6.40-7 6.40L-7 6.40L-7 6.40Q-9.40 6.40-9.40 3.40L-9.40 3.40L-9.40 3.40Q-9.40-9.20 1.20-28.70L1.20-28.70L1.20-28.70Q11.80-48.20 29.60-68.50L29.60-68.50L29.60-68.50Q47.40-88.80 68.20-106.80L68.20-106.80L68.20-106.80Q89-124.80 111.70-136.20L111.70-136.20L111.70-136.20Q134.40-147.60 152.40-147.60L152.40-147.60L152.40-147.60Q166.20-147.60 166.20-140.60L166.20-140.60L166.20-140.60Q166.20-130.20 139.70-109.20L139.70-109.20L139.70-109.20Q113.20-88.20 93.20-78.80L93.20-78.80L93.20-78.80Q93.20-78.40 94-78.40L94-78.40L94-78.40Q102.80-79.60 108.80-79.60L108.80-79.60L108.80-79.60Q128-79.60 128-66.60L128-66.60L128-66.60Q128-54.60 113.20-36.80L113.20-36.80L113.20-36.80Q98.40-19 77.10-5.40L77.10-5.40L77.10-5.40Q55.80 8.20 39.60 8.20L39.60 8.20L39.60 8.20Q27.80 8.20 27.80-2L27.80-2L27.80-2Q27.80-9 32.80-18.50L32.80-18.50L32.80-18.50Q37.80-28 43-32.80L43-32.80L43-32.80Q44.20-33.60 44.60-33.60L44.60-33.60L44.60-33.60Q45-33.60 45-33.40L45-33.40L45-33.40Q40.60-27.40 36.80-18.50L36.80-18.50L36.80-18.50Q33-9.60 33-2.80L33-2.80L33-2.80Q33 6 40.80 6L40.80 6L40.80 6Q51.40 6 70.80-8L70.80-8L70.80-8Q90.20-22 105.60-40.10L105.60-40.10L105.60-40.10Q121-58.20 121-68.60L121-68.60L121-68.60Q121-77.60 108-77.60L108-77.60L108-77.60Q94.40-77.60 86.80-74.40L86.80-74.40L84-73.40L84-73.40Q70.60-68 69.60-68L69.60-68L69.60-68Q68.60-68 68.60-68.50L68.60-68.50L68.60-68.50Q68.60-69 70.20-70L70.20-70L70.20-70Q88.80-77.60 109-92.60L109-92.60L109-92.60Q129.20-107.60 141.80-121.50L141.80-121.50L141.80-121.50Q154.40-135.40 154.40-141.80L154.40-141.80L154.40-141.80Q154.40-145.20 150-145.20L150-145.20L150-145.20Q129.60-145.20 101.50-127.10L101.50-127.10L101.50-127.10Q73.40-109 50.10-84.80L50.10-84.80L50.10-84.80Q26.80-60.60 10.20-36L10.20-36L10.20-36Q-6.40-11.40-6.40 1.40L-6.40 1.40L-6.40 1.40Q-6.40 3.60-5.20 3.60L-5.20 3.60L-5.20 3.60Q-1.40 3.60 16.10-16.90L16.10-16.90L16.10-16.90Q33.60-37.40 51.20-62.40L51.20-62.40L51.20-62.40Q68.80-87.40 72-97.80L72-97.80L72-97.80Q72.40-99.20 73.80-99.20ZM141-43.20L141-43.20L141-43.20Q142.80-45.40 145.20-48.80L145.20-48.80L145.20-48.80Q147.60-52.20 149.20-52.20L149.20-52.20L149.20-52.20Q150.80-52.20 152.60-49.20L152.60-49.20L152.60-49.20Q152.60-45.60 134.50-25.60L134.50-25.60L134.50-25.60Q116.40-5.60 116.40-3.80L116.40-3.80L116.40-3.80Q116.40-3.40 117.60-3.40L117.60-3.40L117.60-3.40Q118.80-3.40 131.60-11.60L131.60-11.60L131.60-11.60Q158.40-28.80 177.80-49.40L177.80-49.40L177.80-49.40Q182.60-53.80 186.20-53.80L186.20-53.80L186.20-53.80Q186.40-53.80 186.60-53.80L186.60-53.80L186.60-53.80Q190.40-53.60 190.40-52.80L190.40-52.80L190.20-52.40L190.20-52.40Q181.60-44.40 164.60-25.40L164.60-25.40L164.60-25.40Q147.60-6.40 147.60-3L147.60-3L147.60-3Q147.60-2.20 148.90-2.20L148.90-2.20L148.90-2.20Q150.20-2.20 176.20-18.60L176.20-18.60L184.40-23.80L184.60-21.40L184.60-21.40Q182.20-19.80 178.40-17.40L178.40-17.40L178.40-17.40Q148.60 1.40 143.60 1.40L143.60 1.40L143.60 1.40Q141.80 1.40 141.80-0.60L141.80-0.60L141.80-0.60Q141.80-2.60 146.70-12L146.70-12L146.70-12Q151.60-21.40 153.80-24L153.80-24L150.60-22.20L150.60-22.20Q120.40-0.60 114.40-0.60L114.40-0.60L114.40-0.60Q112-0.60 112-3.30L112-3.30L112-3.30Q112-6 114.20-10.30L114.20-10.30L114.20-10.30Q116.40-14.60 118.30-17.20L118.30-17.20L118.30-17.20Q120.20-19.80 124-24.30L124-24.30L124-24.30Q127.80-28.80 128-29L128-29L112.40-19.80L111.80-22L118.60-26.20L118.60-26.20Q136-37.40 141-43.20ZM232.60-22L245-29.80L246.60-28L246.60-28Q237.40-22.40 231.60-18.60L231.60-18.60L231.60-18.60Q225.80-14.80 222.80-14.80L222.80-14.80L222.80-14.80Q218.40-14.80 218.40-18.60L218.40-18.60L218.40-18.60Q218.40-21.40 221.50-29.70L221.50-29.70L221.50-29.70Q224.60-38 225.80-41.40L225.80-41.40L225.20-42L225.20-42Q224.40-42 223.40-41.20L223.40-41.20L223.40-41.20Q203.20-25 197.30-19.40L197.30-19.40L197.30-19.40Q191.40-13.80 185.90-7.40L185.90-7.40L185.90-7.40Q180.40-1 179.90-0.40L179.90-0.40L179.90-0.40Q179.40 0.20 179.20 0.40L179.20 0.40L179.20 0.40Q178.60 1 175.10 1L175.10 1L175.10 1Q171.60 1 171.60 0.40L171.60 0.40L171.60 0.40Q172-0.20 176.60-5.20L176.60-5.20L176.60-5.20Q187.80-17.40 196.80-28.60L196.80-28.60L191-25.20L191-25.20Q181.80-19.60 177.60-16.80L177.60-16.80L176.80-19L189.40-27L189.40-27Q196.20-31.40 201.10-36.20L201.10-36.20L201.10-36.20Q206-41 207.80-44L207.80-44L207.80-44Q209.60-47 211-49L211-49L211-49Q212.40-51 213.60-51L213.60-51L213.60-51Q214.80-51 217.40-49.60L217.40-49.60L217.40-49.60Q217.40-47.60 214.20-42.60L214.20-42.60L214.20-42.60Q211-37.60 207.80-33.60L207.80-33.60L204.60-29.80L204.60-29.80Q204.60-29.40 204.80-29.40L204.80-29.40L204.80-29.40Q205.40-29.40 206.20-30.10L206.20-30.10L206.20-30.10Q207-30.80 212.90-35.70L212.90-35.70L212.90-35.70Q218.80-40.60 223.20-44.10L223.20-44.10L223.20-44.10Q227.60-47.60 233.30-50.80L233.30-50.80L233.30-50.80Q239-54 241.60-54L241.60-54L241.60-54Q244.20-54 244.20-52.80L244.20-52.80L244.20-52.80Q244.20-51.20 234.40-46L234.40-46L234.40-46Q232.20-44.80 227.70-34.50L227.70-34.50L227.70-34.50Q223.20-24.20 223.20-19.40L223.20-19.40L223.20-19.40Q223.20-18.40 225.10-18.40L225.10-18.40L225.10-18.40Q227-18.40 232.60-22L232.60-22ZM278.80-51.40L278.80-51.40L278.80-51.40Q278.80-52 278-52L278-52L278-52Q272.60-52 261.20-42.60L261.20-42.60L261.20-42.60Q249.80-33.20 241.40-22L241.40-22L241.40-22Q251.40-25.20 265.10-36.40L265.10-36.40L265.10-36.40Q278.80-47.60 278.80-51.40ZM232.60-4.20L232.60-4.20L232.60-4.20Q232.60-1.60 234.60-1.60L234.60-1.60L234.60-1.60Q237-1.60 245.40-4.90L245.40-4.90L245.40-4.90Q253.80-8.20 259.20-11.40L259.20-11.40L278.80-23.80L279-21.20L279-21.20Q258-7.20 247.70-3.40L247.70-3.40L247.70-3.40Q237.40 0.40 234 0.40L234 0.40L234 0.40Q228.40 0.40 228.40-6.60L228.40-6.60L228.40-6.60Q228.40-16 235.20-25.40L235.20-25.40L235.20-25.40Q242-34.80 251.10-40.80L251.10-40.80L251.10-40.80Q260.20-46.80 268.70-50.60L268.70-50.60L268.70-50.60Q277.20-54.40 281.60-54.40L281.60-54.40L281.60-54.40Q286-54.40 286-51.40L286-51.40L286-51.40Q286-44 268.50-33.40L268.50-33.40L268.50-33.40Q251-22.80 239.40-19.40L239.40-19.40L239.40-19.40Q232.60-9.60 232.60-4.20ZM290-27.80L276.60-19.60L276-22L282.60-26.20L282.60-26.20Q297.60-36.20 301.40-40.30L301.40-40.30L301.40-40.30Q305.20-44.40 306-45.40L306-45.40L306-45.40Q311.20-52 311.80-52.80L311.80-52.80L311.80-52.80Q314.20-52 314.20-48L314.20-48L314.20-48Q310.20-42.20 303.40-34.10L303.40-34.10L303.40-34.10Q296.60-26 292.20-20.70L292.20-20.70L292.20-20.70Q287.80-15.40 287.80-14.60L287.80-14.60L287.80-14.60Q287.80-13.80 288.10-13.80L288.10-13.80L288.10-13.80Q288.40-13.80 291.10-15.90L291.10-15.90L291.10-15.90Q293.80-18 305.80-26.40L305.80-26.40L305.80-26.40Q330-43.20 336.60-47.70L336.60-47.70L336.60-47.70Q343.20-52.20 345.10-52.20L345.10-52.20L345.10-52.20Q347-52.20 347-48.30L347-48.30L347-48.30Q347-44.40 341-36.60L341-36.60L341-36.60Q335-28.80 327.80-22.20L327.80-22.20L327.80-22.20Q308.60-4.60 308.60-2.80L308.60-2.80L308.60-2.80Q308.60-2.60 309.40-2.60L309.40-2.60L309.40-2.60Q311.80-2.60 336.40-18.40L336.40-18.40L344.60-23.80L344.80-21.20L344.80-21.20Q312.60 0.20 305.60 0.20L305.60 0.20L305.60 0.20Q304.40 0.20 304.40-1L304.40-1L304.40-1Q304.40-8.40 313.70-18.50L313.70-18.50L313.70-18.50Q323-28.60 332.20-36.70L332.20-36.70L332.20-36.70Q341.40-44.80 341.40-47.40L341.40-47.40L341.40-47.40Q341.40-47.80 341-47.80L341-47.80L341-47.80Q335.20-45 314.10-30.10L314.10-30.10L314.10-30.10Q293-15.20 289.40-12.60L289.40-12.60L289.40-12.60Q280-5.60 279.50-5.30L279.50-5.30L279.50-5.30Q279-5 277.40-3.20L277.40-3.20L277.40-3.20Q273.80 0.60 270.80 0.60L270.80 0.60L270.80 0.60Q266 0.20 265.80 0L265.80 0L265.80 0Q265.60-0.20 265.60-0.40L265.60-0.40L265.60-0.40Q265.60-0.60 269-4.20L269-4.20L269-4.20Q272.20-7.60 275.40-11L275.40-11L275.40-11Q286-22.80 290-27.80L290-27.80ZM373.80-23.60L374-21.40L374-21.40Q342.60 0 334 0L334 0L334 0Q331.80 0 331.80-1.40L331.80-1.40L331.80-1.40Q331.80-7 346.20-26.80L346.20-26.80L346.20-26.80Q360.60-46.60 379.40-68.80L379.40-68.80L379.40-68.80Q360.20-69.20 355.80-69.20L355.80-69.20L355.80-69.20Q351.40-69.20 351.40-71.40L351.40-71.40L351.40-71.40Q351.40-72.20 353.20-72.20L353.20-72.20L381.80-71.60L381.80-71.60Q406.20-100.20 408.80-100.20L408.80-100.20L408.80-100.20Q414.20-100.20 414.20-98.50L414.20-98.50L414.20-98.50Q414.20-96.80 392-71.40L392-71.40L425.60-70.80L425.60-70.80Q428.20-70.80 428.20-70.10L428.20-70.10L428.20-70.10Q428.20-69.40 427.40-69.20L427.40-69.20L427.40-69.20Q426.20-68.60 407.60-68.60L407.60-68.60L389.60-68.60L389.60-68.60Q376.60-53.80 370.60-47.10L370.60-47.10L370.60-47.10Q364.60-40.40 355-29.20L355-29.20L355-29.20Q337.20-8.40 337.20-4.40L337.20-4.40L337.20-4.40Q337.20-3.60 338.70-3.60L338.70-3.60L338.70-3.60Q340.20-3.60 348.80-8.30L348.80-8.30L348.80-8.30Q357.40-13 361.80-16.20L361.80-16.20L373.80-23.60ZM424.40-18.40L432.60-23.80L432.80-21.20L432.80-21.20Q400.60 0.20 393.60 0.20L393.60 0.20L393.60 0.20Q392.40 0.20 392.40-1.20L392.40-1.20L392.40-1.20Q392.40-5.40 395.60-13.20L395.60-13.20L396.60-16L396.60-16Q396.60-16.40 395.90-16.40L395.90-16.40L395.90-16.40Q395.20-16.40 384.20-8.40L384.20-8.40L384.20-8.40Q373.40-0.40 370.10-0.40L370.10-0.40L370.10-0.40Q366.80-0.40 366.80-6.40L366.80-6.40L366.80-6.40Q366.80-23 385.70-38.80L385.70-38.80L385.70-38.80Q404.60-54.60 431.20-54.60L431.20-54.60L431.20-54.60Q433.60-54.60 433.60-52.60L433.60-52.60L433.60-52.60Q433.60-50.60 414.80-29.30L414.80-29.30L414.80-29.30Q396-8 396-3.60L396-3.60L396-3.60Q396-2.80 397.20-2.80L397.20-2.80L397.20-2.80Q398.40-2.80 407.40-8L407.40-8L407.40-8Q416.40-13.20 424.40-18.40L424.40-18.40ZM400.80-23.60L400.80-23.60L400.80-23.60Q404.20-26.20 414-37.40L414-37.40L414-37.40Q423.80-48.60 423.80-50.40L423.80-50.40L423.80-50.40Q423.80-51.20 422.20-51.20L422.20-51.20L422.20-51.20Q413-51.20 400.80-42.70L400.80-42.70L400.80-42.70Q388.60-34.20 380.10-23.40L380.10-23.40L380.10-23.40Q371.60-12.60 371.60-6L371.60-6L371.60-6Q371.60-4.80 372.80-4.80L372.80-4.80L372.80-4.80Q374-4.80 376.70-6.30L376.70-6.30L376.70-6.30Q379.40-7.80 383.30-10.50L383.30-10.50L383.30-10.50Q387.20-13.20 390-15.20L390-15.20L390-15.20Q399.60-22.40 400.80-23.60Z" fill="#000000"></path></g></g><style>text {
  font-size: 64px;
  font-family: Arial Black;
  dominant-baseline: central;
  text-anchor: middle;
}</style></svg>